<?xml version="1.0" encoding="UTF-8" standalone="no"?><!-- Generator: Gravit.io --><svg xmlns="http://www.w3.org/2000/svg" xmlns:xlink="http://www.w3.org/1999/xlink" style="isolation:isolate" viewBox="0 0 512 512" width="512pt" height="512pt"><clipPath id="_clipPath_OZ7doW8F9uHGJsAovPkssQR1FN8jVqTy"><rect x="24.5" y="20.3" width="462.9" height="471.4" transform="matrix(1,0,0,1,0,0)" id="Rectangle" fill="rgb(255,255,255)"/></clipPath><g clip-path="url(#_clipPath_OZ7doW8F9uHGJsAovPkssQR1FN8jVqTy)"><g id="Group"><path d=" M 90.922 109.476 L 478.43 109.476 L 429.991 393.317 L 139.36 393.317 M 429.991 480.652 L 155.506 480.652 L 74.775 22.141 L 26.337 22.141" id="Compound Path" fill="none" vector-effect="non-scaling-stroke" stroke-width="19" stroke="rgb(255,255,255)" stroke-opacity="100" stroke-linejoin="round" stroke-linecap="round" stroke-miterlimit="4"/><ellipse vector-effect="non-scaling-stroke" cx="384.84636563876654" cy="434.1563876651983" rx="14.014867841409682" ry="14.270925110132168" id="Ellipse" fill="none" stroke-width="5" stroke="rgb(255,255,255)" stroke-opacity="100" stroke-linejoin="round" stroke-linecap="round" stroke-miterlimit="4"/><mask id="_mask_4PXCiaAhBz6TPooygYknw33FYprHAVGF" x="-200%" y="-200%" width="400%" height="400%"><rect x="-200%" y="-200%" width="400%" height="400%" style="fill:white;"/><path d=" M 225.258 436.458 C 225.258 445.604 232.145 453.031 240.629 453.031 C 249.113 453.031 256 445.604 256 436.458 C 256 427.312 249.113 419.885 240.629 419.885 C 232.145 419.885 225.258 427.312 225.258 436.458 Z " id="Path" fill="black" stroke="none"/></mask><path d=" M 225.258 436.458 C 225.258 445.604 232.145 453.031 240.629 453.031 C 249.113 453.031 256 445.604 256 436.458 C 256 427.312 249.113 419.885 240.629 419.885 C 232.145 419.885 225.258 427.312 225.258 436.458 Z " id="Path" fill="none"/><path d=" M 225.258 436.458 C 225.258 445.604 232.145 453.031 240.629 453.031 C 249.113 453.031 256 445.604 256 436.458 C 256 427.312 249.113 419.885 240.629 419.885 C 232.145 419.885 225.258 427.312 225.258 436.458 Z " id="Path" fill="none" mask="url(#_mask_4PXCiaAhBz6TPooygYknw33FYprHAVGF)" vector-effect="non-scaling-stroke" stroke-width="10" stroke="rgb(255,255,255)" stroke-opacity="100" stroke-linejoin="round" stroke-linecap="round" stroke-miterlimit="4"/><g id="Group"><g id="Group"><path d=" M 293.828 259.079 C 293.114 259.46 292.232 259.938 290.568 259.938 C 288.904 259.938 288.022 259.46 287.306 259.079 C 286.682 258.746 286.235 258.503 285.23 258.503 C 284.225 258.503 283.778 258.746 283.153 259.079 C 282.438 259.46 281.556 259.938 279.892 259.938 C 278.228 259.938 277.346 259.46 276.631 259.079 C 276.006 258.746 275.559 258.503 274.554 258.503 C 273.549 258.503 273.103 258.746 272.477 259.079 C 271.763 259.46 270.88 259.938 269.216 259.938 C 268.848 259.938 268.513 259.913 268.211 259.872 C 267.24 259.735 266.603 259.419 266.067 259.136 L 266.067 259.897 C 266.603 260.189 267.262 260.513 268.267 260.642 C 268.557 260.683 268.87 260.699 269.216 260.699 C 270.88 260.699 271.763 260.221 272.477 259.84 C 273.103 259.508 273.549 259.265 274.554 259.265 C 275.559 259.265 276.006 259.508 276.631 259.84 C 277.346 260.221 278.228 260.699 279.892 260.699 C 281.556 260.699 282.438 260.221 283.153 259.84 C 283.778 259.508 284.225 259.265 285.23 259.265 C 286.235 259.265 286.682 259.508 287.306 259.84 C 288.022 260.221 288.904 260.699 290.568 260.699 C 292.232 260.699 293.114 260.221 293.828 259.84 C 294.197 259.638 294.51 259.476 294.912 259.371 L 294.912 258.609 C 294.51 258.714 294.197 258.876 293.828 259.079 L 293.828 259.079 Z " id="Path" fill="rgb(221,98,154)"/><path d=" M 290.568 260.708 C 288.904 260.708 288.022 260.23 287.306 259.849 C 286.682 259.516 286.235 259.273 285.23 259.273 C 284.225 259.273 283.778 259.516 283.153 259.849 C 282.438 260.23 281.556 260.708 279.892 260.708 C 278.228 260.708 277.346 260.23 276.631 259.849 C 276.006 259.516 275.559 259.273 274.554 259.273 C 273.549 259.273 273.103 259.516 272.477 259.849 C 271.763 260.23 270.88 260.708 269.216 260.708 C 268.87 260.708 268.557 260.683 268.267 260.65 C 267.262 260.521 266.614 260.197 266.067 259.906 L 266.067 259.143 C 266.067 259.143 266.056 259.143 266.056 259.136 L 266.056 262.149 C 266.056 262.887 266.558 263.535 267.34 263.924 L 292.801 263.924 C 293.941 263.924 294.867 263.251 294.867 262.425 L 294.867 259.379 C 294.465 259.484 294.152 259.646 293.784 259.849 C 293.114 260.23 292.232 260.708 290.568 260.708 Z " id="Path" fill="rgb(242,122,170)"/><path d=" M 266.101 262.149 L 266.101 259.136 C 266.067 259.119 266.034 259.095 266 259.079 C 265.631 258.876 265.319 258.714 264.917 258.609 L 264.917 262.417 C 264.917 263.243 265.844 263.915 266.983 263.915 L 267.374 263.915 C 266.572 263.517 266.095 262.855 266.101 262.149 L 266.101 262.149 Z " id="Path" fill="rgb(241,176,208)"/><path d=" M 266.983 265.366 L 264.001 265.366 C 264.202 266.119 264.75 266.784 265.531 267.262 C 265.743 267.294 265.978 267.311 266.201 267.311 L 293.751 267.311 C 295.425 267.311 296.844 266.492 297.279 265.374 L 266.983 265.374 L 266.983 265.366 Z " id="Path" fill="rgb(247,146,38)"/><path d=" M 280.305 245.54 L 279.97 245.297 L 279.479 245.654 L 278.987 246.01 C 278.887 246.083 278.797 246.164 278.742 246.253 L 278.742 246.262 C 278.675 246.358 278.63 246.456 278.607 246.561 C 278.596 246.61 278.586 246.667 278.586 246.715 L 278.586 246.723 C 278.585 247.211 279.064 247.63 279.725 247.72 C 279.903 247.744 280.082 247.744 280.26 247.72 C 280.35 247.704 280.439 247.687 280.517 247.663 C 280.644 247.623 280.765 247.571 280.875 247.509 C 280.908 247.484 280.942 247.46 280.986 247.437 C 281.02 247.412 281.042 247.388 281.076 247.363 C 281.12 247.322 281.165 247.282 281.199 247.241 C 281.232 247.201 281.266 247.16 281.288 247.112 C 281.343 247.023 281.377 246.934 281.389 246.836 L 281.389 246.804 C 281.422 246.512 281.288 246.221 280.986 245.994 L 280.305 245.54 L 280.305 245.54 Z  M 288.792 245.484 L 288.546 245.305 L 288.055 245.661 L 287.564 246.019 C 287.026 246.416 287.026 247.054 287.564 247.452 C 287.598 247.477 287.631 247.501 287.675 247.525 C 287.753 247.565 287.832 247.606 287.91 247.639 C 288.187 247.745 288.506 247.779 288.815 247.736 C 288.904 247.72 288.993 247.704 289.082 247.68 C 289.25 247.631 289.406 247.558 289.541 247.46 L 289.552 247.452 C 289.729 247.322 289.856 247.159 289.92 246.983 L 289.954 246.853 C 289.965 246.812 289.965 246.772 289.965 246.731 C 289.965 246.472 289.831 246.213 289.552 246.01 L 288.792 245.484 L 288.792 245.484 Z  M 271.651 245.484 L 271.405 245.305 L 271.07 245.548 L 270.411 246.026 C 270.189 246.187 270.051 246.399 270.02 246.626 C 270.02 246.642 270.02 246.65 270.009 246.667 C 269.976 246.958 270.11 247.25 270.411 247.477 C 270.609 247.622 270.862 247.72 271.137 247.761 C 271.316 247.785 271.494 247.785 271.662 247.761 C 271.707 247.752 271.751 247.744 271.807 247.736 C 271.851 247.727 271.896 247.72 271.93 247.704 C 272.097 247.655 272.254 247.582 272.387 247.484 L 272.399 247.477 L 272.41 247.469 C 272.5 247.403 272.566 247.339 272.623 247.266 C 272.644 247.241 272.656 247.217 272.667 247.201 C 272.723 247.12 272.756 247.031 272.779 246.942 C 272.79 246.885 272.801 246.829 272.801 246.772 L 272.801 246.763 C 272.801 246.505 272.667 246.245 272.387 246.043 L 271.651 245.484 L 271.651 245.484 Z  M 264.001 265.366 L 262.672 265.366 C 263.056 266.339 264.161 267.071 265.531 267.262 C 264.75 266.784 264.191 266.119 264.001 265.366 Z " id="Compound Path" fill="rgb(255,195,21)"/><path d=" M 279.97 249.194 C 280.875 249.194 281.723 248.935 282.36 248.473 C 283.678 247.512 283.678 245.959 282.36 244.998 L 281.366 244.277 L 279.959 243.256 L 278.574 244.284 L 277.58 245.006 C 276.263 245.967 276.263 247.52 277.58 248.482 C 278.217 248.943 279.066 249.194 279.97 249.194 Z  M 278.574 246.731 C 278.574 246.682 278.586 246.626 278.596 246.578 C 278.619 246.472 278.663 246.375 278.73 246.277 L 278.73 246.269 C 278.764 246.229 278.797 246.181 278.842 246.14 L 278.976 246.019 L 279.467 245.661 L 279.959 245.305 L 280.294 245.548 L 280.953 246.026 C 281.143 246.164 281.266 246.334 281.322 246.512 C 281.355 246.618 281.366 246.731 281.355 246.836 L 281.355 246.869 C 281.343 246.966 281.31 247.055 281.255 247.145 C 281.232 247.185 281.199 247.234 281.165 247.274 C 281.132 247.315 281.087 247.363 281.042 247.396 C 281.02 247.42 280.986 247.444 280.953 247.469 C 280.919 247.493 280.886 247.518 280.842 247.541 C 280.731 247.603 280.611 247.655 280.484 247.695 C 280.395 247.72 280.316 247.736 280.227 247.752 C 280.138 247.768 280.049 247.768 279.959 247.768 C 279.87 247.768 279.78 247.761 279.691 247.752 C 279.423 247.712 279.177 247.623 278.965 247.477 C 278.7 247.286 278.551 247.026 278.552 246.755 C 278.574 246.74 278.574 246.731 278.574 246.731 L 278.574 246.731 Z  M 288.546 249.194 C 289.451 249.194 290.299 248.935 290.936 248.473 C 291.572 248.011 291.931 247.396 291.931 246.74 C 291.931 246.083 291.572 245.467 290.936 245.006 L 289.954 244.284 L 288.546 243.264 L 287.151 244.284 L 286.156 245.006 C 284.839 245.967 284.839 247.52 286.156 248.482 C 286.793 248.943 287.642 249.194 288.546 249.194 L 288.546 249.194 Z  M 287.306 246.269 C 287.341 246.229 287.374 246.181 287.419 246.14 C 287.463 246.1 287.508 246.059 287.564 246.019 L 288.055 245.661 L 288.546 245.305 L 288.792 245.484 L 289.541 246.026 C 289.819 246.229 289.954 246.488 289.954 246.748 C 289.954 246.788 289.954 246.829 289.942 246.869 L 289.909 246.998 C 289.845 247.176 289.718 247.338 289.541 247.469 L 289.529 247.477 C 289.429 247.55 289.317 247.606 289.194 247.655 C 289.149 247.671 289.116 247.687 289.071 247.695 C 288.982 247.72 288.892 247.736 288.803 247.752 C 288.714 247.761 288.636 247.768 288.546 247.768 C 288.458 247.768 288.368 247.761 288.279 247.752 C 288.245 247.744 288.212 247.744 288.178 247.736 C 288.078 247.72 287.988 247.687 287.888 247.655 C 287.809 247.623 287.731 247.59 287.653 247.541 C 287.619 247.518 287.586 247.493 287.542 247.469 C 287.118 247.136 287.028 246.65 287.306 246.269 L 287.306 246.269 Z  M 271.405 249.194 C 272.31 249.194 273.158 248.935 273.794 248.473 C 274.431 248.011 274.789 247.396 274.789 246.74 C 274.789 246.083 274.431 245.467 273.794 245.006 L 272.801 244.284 L 271.394 243.264 L 269.998 244.284 L 269.004 245.006 C 268.367 245.467 268.01 246.083 268.01 246.74 C 268.01 247.396 268.367 248.011 269.004 248.473 C 269.641 248.943 270.5 249.194 271.405 249.194 Z  M 270.009 246.65 C 270.009 246.634 270.009 246.626 270.02 246.61 C 270.031 246.52 270.065 246.431 270.11 246.343 C 270.132 246.31 270.143 246.286 270.166 246.253 C 270.233 246.164 270.311 246.083 270.411 246.01 L 271.07 245.533 L 271.405 245.289 L 271.651 245.467 L 272.399 246.01 C 272.678 246.213 272.812 246.472 272.812 246.731 L 272.812 246.74 C 272.812 246.796 272.801 246.853 272.79 246.91 C 272.767 246.998 272.734 247.088 272.678 247.169 C 272.667 247.193 272.644 247.217 272.633 247.234 C 272.577 247.307 272.51 247.371 272.421 247.437 L 272.41 247.444 L 272.399 247.452 C 272.298 247.525 272.187 247.582 272.064 247.631 C 272.019 247.646 271.986 247.663 271.941 247.671 C 271.896 247.687 271.851 247.695 271.818 247.704 C 271.774 247.712 271.729 247.72 271.673 247.727 C 271.584 247.736 271.506 247.744 271.416 247.744 C 271.327 247.744 271.237 247.736 271.148 247.727 C 270.924 247.695 270.713 247.631 270.534 247.518 C 270.5 247.493 270.467 247.469 270.423 247.444 C 270.098 247.234 269.964 246.942 270.009 246.65 L 270.009 246.65 Z  M 266.201 268.744 L 293.751 268.744 C 296.866 268.744 299.401 266.906 299.401 264.645 L 299.401 263.924 L 296.319 263.924 C 296.676 263.486 296.888 262.968 296.888 262.425 L 296.888 255.263 C 296.888 253.642 295.068 252.322 292.835 252.322 L 289.541 252.322 L 289.541 249.875 L 287.552 249.875 L 287.552 252.322 L 280.964 252.322 L 280.964 249.875 L 278.976 249.875 L 278.976 252.322 L 272.387 252.322 L 272.387 249.875 L 270.411 249.875 L 270.411 252.322 L 266.983 252.322 C 264.75 252.322 262.929 253.642 262.929 255.263 L 262.929 262.425 C 262.929 262.976 263.141 263.486 263.498 263.924 L 260.551 263.924 L 260.551 264.645 C 260.551 266.906 263.085 268.744 266.201 268.744 L 266.201 268.744 Z  M 264.917 255.263 C 264.917 254.437 265.844 253.764 266.983 253.764 L 292.835 253.764 C 293.974 253.764 294.901 254.437 294.901 255.263 L 294.901 257.126 C 293.851 257.272 293.192 257.629 292.634 257.921 C 292.008 258.252 291.562 258.495 290.556 258.495 C 289.552 258.495 289.105 258.252 288.479 257.921 C 287.765 257.539 286.882 257.062 285.219 257.062 C 283.555 257.062 282.673 257.539 281.958 257.921 C 281.333 258.252 280.886 258.495 279.88 258.495 C 278.876 258.495 278.429 258.252 277.804 257.921 C 277.089 257.539 276.207 257.062 274.543 257.062 C 272.879 257.062 271.997 257.539 271.283 257.921 C 270.657 258.252 270.21 258.495 269.205 258.495 C 268.2 258.495 267.753 258.252 267.128 257.921 C 266.57 257.62 265.911 257.264 264.861 257.126 L 264.861 255.263 L 264.917 255.263 L 264.917 255.263 Z  M 264.917 262.425 L 264.917 258.617 C 265.319 258.723 265.631 258.885 266 259.087 C 266.034 259.103 266.067 259.128 266.101 259.143 C 266.101 259.143 266.112 259.143 266.112 259.152 C 266.637 259.435 267.284 259.751 268.256 259.889 C 268.557 259.93 268.881 259.954 269.261 259.954 C 270.924 259.954 271.807 259.476 272.522 259.095 C 273.147 258.763 273.594 258.52 274.599 258.52 C 275.604 258.52 276.05 258.763 276.676 259.095 C 277.39 259.476 278.273 259.954 279.936 259.954 C 281.6 259.954 282.483 259.476 283.198 259.095 C 283.823 258.763 284.269 258.52 285.275 258.52 C 286.279 258.52 286.726 258.763 287.352 259.095 C 288.066 259.476 288.949 259.954 290.612 259.954 C 292.276 259.954 293.158 259.476 293.874 259.095 C 294.242 258.893 294.554 258.731 294.957 258.625 L 294.957 262.433 C 294.957 263.26 294.029 263.932 292.891 263.932 L 266.983 263.932 C 265.844 263.924 264.917 263.251 264.917 262.425 L 264.917 262.425 Z  M 264.001 265.366 L 297.279 265.366 C 296.831 266.511 295.391 267.302 293.751 267.303 L 266.201 267.303 C 264.56 267.294 263.123 266.502 262.672 265.358 L 264.001 265.358 L 264.001 265.366 Z " id="Compound Path" fill="rgb(89,45,45)"/></g></g></g></g></svg>