<?xml version="1.0" encoding="UTF-8" standalone="no"?><!-- Generator: Gravit.io --><svg xmlns="http://www.w3.org/2000/svg" xmlns:xlink="http://www.w3.org/1999/xlink" style="isolation:isolate" viewBox="0 0 512 512" width="512pt" height="512pt"><defs><clipPath id="_clipPath_A2aIIJYiy6x1nv8eQwiGv1ajMYesZuQX"><rect width="512" height="512"/></clipPath></defs><g clip-path="url(#_clipPath_A2aIIJYiy6x1nv8eQwiGv1ajMYesZuQX)"><g><path d=" M 449 430.667 L 513 430.667 L 513 4 L 75.667 4 L 75.667 77.143 L 1 77.143 L 1 516 L 449 516 L 449 430.667 Z  M 97 28.381 L 491.667 28.381 L 491.667 406.286 L 449 406.286 L 449 77.143 L 97 77.143 L 97 28.381 Z  M 75.667 101.524 L 427.667 101.524 L 427.667 194.001 L 385 145.239 L 203.667 352.477 L 97 230.572 L 22.333 315.906 L 22.333 101.524 L 75.667 101.524 Z  M 427.667 491.619 L 22.333 491.619 L 22.333 350.38 L 97 265.047 L 203.667 386.952 L 385 179.714 L 427.667 228.475 L 427.667 430.667 L 427.667 491.619 Z " fill="rgb(245,251,247)"/><path d=" M 203.667 260 C 233.075 260 257 232.657 257 199.048 C 257 165.438 233.075 138.095 203.667 138.095 C 174.259 138.095 150.333 165.438 150.333 199.048 C 150.333 232.657 174.259 260 203.667 260 Z  M 203.667 162.476 C 221.309 162.476 235.667 178.885 235.667 199.048 C 235.667 219.211 221.309 235.619 203.667 235.619 C 186.024 235.619 171.667 219.211 171.667 199.048 C 171.667 178.885 186.024 162.476 203.667 162.476 Z " fill="rgb(253,253,253)"/></g></g></svg>